<svg xmlns="http://www.w3.org/2000/svg" width="32" height="32" viewBox="0 0 32 32">
  <g id="Group_897" data-name="Group 897" transform="translate(354 -197)">
    <g id="icons" transform="translate(-354 197)">
      <rect id="icons_hosts_hover_background" data-name="icons/hosts/hover background" width="32" height="32" fill="none"/>
    </g>
    <g id="Layer_2" data-name="Layer 2" transform="translate(-346 204.01)">
      <g id="Layer_1" data-name="Layer 1">
        <path id="Path_402" data-name="Path 402" d="M5.51,2.19a2.25,2.25,0,0,1-.08-.58V1.49A7.68,7.68,0,0,0,3,3a2.73,2.73,0,0,1,.5.46A6.69,6.69,0,0,1,5.51,2.19Z" fill="rgba(255,255,255,0.8)"/>
        <path id="Path_403" data-name="Path 403" d="M7.94,3.17a1.58,1.58,0,1,0-1.127-.452A1.59,1.59,0,0,0,7.94,3.17Z" fill="rgba(255,255,255,0.8)"/>
        <path id="Path_404" data-name="Path 404" d="M8.06,14.09a1.59,1.59,0,1,0,1.6,1.57,1.59,1.59,0,0,0-1.6-1.57Z" fill="rgba(255,255,255,0.8)"/>
        <path id="Path_405" data-name="Path 405" d="M10.49,15.08a2.12,2.12,0,0,1,.08.57v.12A7.51,7.51,0,0,0,13,14.29a2.17,2.17,0,0,1-.5-.46A6.92,6.92,0,0,1,10.49,15.08Z" fill="rgba(255,255,255,0.8)"/>
        <path id="Path_406" data-name="Path 406" d="M1.6,6.64A1.59,1.59,0,1,0,0,5.07,1.59,1.59,0,0,0,1.6,6.64Z" fill="rgba(255,255,255,0.8)"/>
        <path id="Path_407" data-name="Path 407" d="M14.35,6.5a1.59,1.59,0,1,0-1.6-1.57,1.59,1.59,0,0,0,1.6,1.57Z" fill="rgba(255,255,255,0.8)"/>
        <path id="Path_408" data-name="Path 408" d="M12.41,3.35a2.71,2.71,0,0,1,.49-.47,7.43,7.43,0,0,0-2.5-1.44.5.5,0,0,0,0,.12,2.79,2.79,0,0,1-.07.58A7,7,0,0,1,12.41,3.35Z" fill="rgba(255,255,255,0.8)"/>
        <path id="Path_409" data-name="Path 409" d="M1.65,10.76a1.59,1.59,0,1,0,1.6,1.57,1.59,1.59,0,0,0-1.6-1.57Z" fill="rgba(255,255,255,0.8)"/>
        <path id="Path_410" data-name="Path 410" d="M3.59,13.92a3.11,3.11,0,0,1-.49.47,7.78,7.78,0,0,0,2.5,1.44.5.5,0,0,0,0-.12,2.71,2.71,0,0,1,.07-.58,7,7,0,0,1-2.08-1.21Z" fill="rgba(255,255,255,0.8)"/>
        <path id="Path_411" data-name="Path 411" d="M14.4,10.62A1.59,1.59,0,1,0,16,12.19a1.59,1.59,0,0,0-1.6-1.57Z" fill="rgba(255,255,255,0.8)"/>
        <path id="Path_412" data-name="Path 412" d="M.53,7.3A7.36,7.36,0,0,0,.41,8.72a7.24,7.24,0,0,0,.16,1.4,2.69,2.69,0,0,1,.64-.22,6.58,6.58,0,0,1-.12-1.19,6,6,0,0,1,.1-1.2A2.42,2.42,0,0,1,.53,7.3Z" fill="rgba(255,255,255,0.8)"/>
        <path id="Path_413" data-name="Path 413" d="M15.47,10a7.17,7.17,0,0,0,0-2.82,2.31,2.31,0,0,1-.64.22,6.78,6.78,0,0,1,.12,1.2,6,6,0,0,1-.1,1.2,2.11,2.11,0,0,1,.62.2Z" fill="rgba(255,255,255,0.8)"/>
        <rect id="Rectangle_770" data-name="Rectangle 770" width="0.91" height="0.91" transform="translate(7.493 3.957) rotate(-0.63)" fill="rgba(255,255,255,0.8)"/>
        <rect id="Rectangle_771" data-name="Rectangle 771" width="0.91" height="0.91" transform="translate(7.586 12.416) rotate(-0.63)" fill="rgba(255,255,255,0.8)"/>
        <rect id="Rectangle_772" data-name="Rectangle 772" width="0.91" height="0.91" transform="translate(11.123 10.968) rotate(-61.28)" fill="rgba(255,255,255,0.8)"/>
        <rect id="Rectangle_773" data-name="Rectangle 773" width="0.91" height="0.91" transform="translate(3.726 6.436) rotate(-61.28)" fill="rgba(255,255,255,0.8)"/>
        <rect id="Rectangle_774" data-name="Rectangle 774" width="0.91" height="0.91" transform="translate(11.116 6.363) rotate(-36.26)" fill="rgba(255,255,255,0.8)"/>
        <rect id="Rectangle_775" data-name="Rectangle 775" width="0.91" height="0.91" transform="matrix(0.806, -0.592, 0.592, 0.806, 3.449, 10.54)" fill="rgba(255,255,255,0.8)"/>
        <path id="Path_414" data-name="Path 414" d="M8,5.63a3,3,0,1,0,3,3A3,3,0,0,0,8,5.63Z" fill="rgba(255,255,255,0.8)"/>
      </g>
    </g>
  </g>
</svg>
