<svg id="Group_10998" data-name="Group 10998" xmlns="http://www.w3.org/2000/svg" xmlns:xlink="http://www.w3.org/1999/xlink" width="52.098" height="101.815" viewBox="0 0 52.098 101.815">
  <defs>
    <linearGradient id="linear-gradient" x1="1.368" y1="0.717" x2="-0.409" y2="0.293" gradientUnits="objectBoundingBox">
      <stop offset="0" stop-color="#fff"/>
      <stop offset="0.837" stop-color="#b7c7de"/>
    </linearGradient>
    <linearGradient id="linear-gradient-2" y1="0.5" x2="1" y2="0.5" gradientUnits="objectBoundingBox">
      <stop offset="0" stop-color="#fff"/>
      <stop offset="1" stop-color="#b7c7de"/>
    </linearGradient>
    <linearGradient id="linear-gradient-4" x1="1" y1="0.5" x2="0" y2="0.5" xlink:href="#linear-gradient-2"/>
    <linearGradient id="linear-gradient-6" x1="1" y1="0.5" x2="0" y2="0.5" gradientUnits="objectBoundingBox">
      <stop offset="0" stop-color="#fff"/>
      <stop offset="1" stop-color="#c1d0ea"/>
    </linearGradient>
    <linearGradient id="linear-gradient-7" y1="0.5" x2="1" y2="0.5" gradientUnits="objectBoundingBox">
      <stop offset="0" stop-color="#b7c7de"/>
      <stop offset="1" stop-color="#fff"/>
    </linearGradient>
    <linearGradient id="linear-gradient-8" x1="0.315" y1="0.809" x2="0.812" y2="-0.019" xlink:href="#linear-gradient-2"/>
  </defs>
  <path id="Path_10199" data-name="Path 10199" d="M163.079,178.166l-5.258,5.566a1.865,1.865,0,0,1-2.705.006l-5.3-5.559a9.791,9.791,0,0,1-2.718-9.35l.569-1.705,2.058-6.161h13.4l2.065,6.192.569,1.706A9.776,9.776,0,0,1,163.079,178.166Z" transform="translate(-130.376 -82.502)" fill="#8282bc" opacity="0.2"/>
  <path id="Path_10200" data-name="Path 10200" d="M165.535,164.5a5.7,5.7,0,0,1-1.2,5.707l-.027.029-5.3,5.612a1.8,1.8,0,0,1-2.617.006l-5.346-5.606-.028-.029a5.644,5.644,0,0,1-1.261-5.675l1.2-3.586h13.4Z" transform="translate(-131.61 -82.502)" fill="#8282bc" opacity="0.3"/>
  <g id="Group_10995" data-name="Group 10995" transform="translate(0 53.958)">
    <path id="Path_10201" data-name="Path 10201" d="M187.657,132.611,199.739,148.2a.9.9,0,0,0,1.609-.551v-19a5.389,5.389,0,0,0-2.094-4.264l-11.6-8.962Z" transform="translate(-149.25 -115.425)" fill="url(#linear-gradient)"/>
    <path id="Path_10202" data-name="Path 10202" d="M129.971,132.611,117.887,148.2a.9.9,0,0,1-1.607-.55v-19a5.392,5.392,0,0,1,2.1-4.267l11.6-8.961Z" transform="translate(-116.28 -115.425)" fill="url(#linear-gradient-2)"/>
  </g>
  <path id="Path_10203" data-name="Path 10203" d="M164.43,52.627q-.311-.967-.648-1.909c-.448-1.256-.927-2.478-1.427-3.663-.625-1.481-1.284-2.9-1.96-4.26q-.638-1.281-1.292-2.48H139.826q-.652,1.2-1.292,2.48c-.676,1.357-1.335,2.779-1.96,4.26-.5,1.185-.979,2.407-1.427,3.663q-.336.942-.648,1.909A54.743,54.743,0,0,0,131.727,69.4a102.016,102.016,0,0,0,.645,11.554c.233,2.043.527,4.024.876,5.933q.1.573.216,1.136.2,1,.418,1.976c.1.445.2.887.308,1.322q.261,1.07.546,2.1.142.515.291,1.019.3,1.008.616,1.973T136.3,98.3q.512,1.376,1.071,2.642.745,1.686,1.567,3.16h21.044q.82-1.471,1.566-3.16c.62-1.4,1.2-2.917,1.732-4.523q.32-.964.617-1.973.148-.5.291-1.019.285-1.03.546-2.1.391-1.605.726-3.3.111-.563.216-1.136c.349-1.909.643-3.89.876-5.933A102.048,102.048,0,0,0,167.2,69.4a54.74,54.74,0,0,0-2.772-16.775Z" transform="translate(-123.415 -26.771)" fill="url(#linear-gradient-2)"/>
  <path id="Path_10204" data-name="Path 10204" d="M164.455,25.874q-.207-.348-.413-.686-.618-1.016-1.222-1.947c-1.738-2.689-3.339-4.829-4.505-6.3-.488-.614-.9-1.111-1.214-1.481a.9.9,0,0,0-1.369,0c-.314.37-.726.866-1.214,1.481-1.166,1.468-2.767,3.609-4.505,6.3q-.6.931-1.222,1.947-.206.339-.413.686-.414.7-.83,1.427-.386.678-.77,1.386h19.277C165.523,27.708,164.987,26.768,164.455,25.874Z" transform="translate(-130.368 -15.145)" fill="#ff6584"/>
  <path id="Path_10205" data-name="Path 10205" d="M154.607,154.376H142.859q.59,1.269,1.225,2.41h21.044q.635-1.139,1.225-2.41Z" transform="translate(-128.557 -79.459)" fill="url(#linear-gradient-4)"/>
  <path id="Path_10206" data-name="Path 10206" d="M164.374,158.552H143.33l-2.1,5.354h25.252Z" transform="translate(-127.803 -81.388)" fill="url(#linear-gradient-4)"/>
  <g id="Group_10996" data-name="Group 10996" transform="translate(14.329 26.71)">
    <path id="Path_10207" data-name="Path 10207" d="M154.63,64.785a11.72,11.72,0,1,0,11.72,11.72,11.72,11.72,0,0,0-11.72-11.72Z" transform="translate(-142.91 -64.785)" fill="url(#linear-gradient-6)"/>
    <path id="Path_10208" data-name="Path 10208" d="M166.085,78.11a9.851,9.851,0,0,0-19.7,0h0a9.851,9.851,0,1,0,19.7,0" transform="translate(-144.514 -66.39)" fill="#029ce0"/>
  </g>
  <path id="Path_10209" data-name="Path 10209" d="M165.365,137.213v8a3.269,3.269,0,0,1-.484,1.714,39.879,39.879,0,0,1-2.578,3.756,2.275,2.275,0,0,1-3.719,0,34.389,34.389,0,0,1-2.474-3.778,3.28,3.28,0,0,1-.438-1.637V137a1.93,1.93,0,0,1,.1-.6l4.066-12.423.692-2.116.094-.287.716,2.4,3.941,12.657A1.931,1.931,0,0,1,165.365,137.213Z" transform="translate(-134.476 -64.309)" fill="url(#linear-gradient-7)"/>
  <path id="Path_10210" data-name="Path 10210" d="M155.89,75.571c-.393-.926-1.562-.891-2.7.324s-1.544,2.348-.926,2.835c.836.66,1.571.6,2.59-.723C155.482,77.188,156.3,76.547,155.89,75.571Z" transform="translate(-132.768 -42.758)" fill="url(#linear-gradient-8)"/>
  <path id="Path_10211" data-name="Path 10211" d="M173.036,91l.37.1-.221-.31.321-.717-.581.532-.358-.114.2.321-.346.712Z" transform="translate(-142.214 -49.757)" fill="#c8d3d7" opacity="0.31"/>
  <path id="Path_10212" data-name="Path 10212" d="M173.456,95.46a.188.188,0,1,1-.188-.188A.188.188,0,0,1,173.456,95.46Z" transform="translate(-142.517 -52.158)" fill="#72a7d3" opacity="0.29"/>
  <path id="Path_10213" data-name="Path 10213" d="M163.889,82.4a.209.209,0,1,1-.209-.209A.209.209,0,0,1,163.889,82.4Z" transform="translate(-138.078 -46.116)" fill="#c8d3d7" opacity="0.11"/>
  <g id="Group_10997" data-name="Group 10997" transform="translate(23.527 42.971)" opacity="0.15">
    <path id="Path_10214" data-name="Path 10214" d="M160.132,96.575a.128.128,0,0,1-.091-.218l1.313-1.313a.128.128,0,1,1,.181.181l-1.313,1.313A.128.128,0,0,1,160.132,96.575Z" transform="translate(-160.004 -95.006)" fill="#fff"/>
    <path id="Path_10215" data-name="Path 10215" d="M161.446,96.575a.127.127,0,0,1-.091-.037l-1.313-1.313a.128.128,0,0,1,.181-.181l1.313,1.313a.128.128,0,0,1-.09.218Z" transform="translate(-160.004 -95.006)" fill="#fff"/>
  </g>
  <path id="Path_10216" data-name="Path 10216" d="M173.178,80.988l.712.189-.426-.6.619-1.379-1.118,1.023-.689-.218.387.617L172,81.993Z" transform="translate(-142.018 -44.734)" fill="#c8d3d7" opacity="0.11"/>
  <path id="Path_10217" data-name="Path 10217" d="M153.315,89.2l.391.1-.233-.328.34-.758-.614.562-.378-.121.213.339-.366.753Z" transform="translate(-133.088 -48.899)" fill="#c8d3d7" opacity="0.11"/>
</svg>
